User Type,Username,Date,Text
,Doug_xx2,2013-02-01T19:35Z,"This is the information from one of the episodes it should be pretty much the same for all of them:



General
Count                               : 279
Count of stream of this kind        : 1
Kind of stream                      : General
Kind of stream                      : General
Stream identifier                   : 0
Count of video streams              : 1
Count of audio streams              : 1
Video_Format_List                   : AVC
Video_Format_WithHint_List          : AVC
Codecs Video                        : AVC
Video_Language_List                 : English
Audio_Format_List                   : AAC
Audio_Format_WithHint_List          : AAC
Audio codecs                        : AAC LC
Audio_Language_List                 : English
File extension                      : mp4
Format                              : MPEG-4
Format                              : MPEG-4
Format/Extensions usually used      : mp4 m4v m4a m4b m4p 3gpp 3gp 3gpp2 3g2 k3g jpm jpx mqv ismv isma f4v
Commercial name                     : MPEG-4
Internet media type                 : video/mp4
Codec ID                            : isom
Codec ID/Url                        : http://www.apple.com/quicktime/download/standalone.html
Codec                               : MPEG-4
Codec                               : MPEG-4
Codec/Extensions usually used       : mp4 m4v m4a m4b m4p 3gpp 3gp 3gpp2 3g2 k3g jpm jpx mqv ismv isma f4v
Overall bit rate mode               : VBR
Overall bit rate mode               : Variable
Overall bit rate                    : 1452386
Overall bit rate                    : 1 452 Kbps
Stream size                         : 436242
Stream size                         : 426 KiB (0%)
Stream size                         : 426 KiB
Stream size                         : 426 KiB
Stream size                         : 426 KiB
Stream size                         : 426.0 KiB
Stream size                         : 426 KiB (0%)
Proportion of this stream           : 0.00472
HeaderSize                          : 40
DataSize                            : 91978162
FooterSize                          : 436194
IsStreamable                        : No

Video
Count                               : 248
Count of stream of this kind        : 1
Kind of stream                      : Video
Kind of stream                      : Video
Stream identifier                   : 0
StreamOrder                         : 0
ID                                  : 1
ID                                  : 1
Format                              : AVC
Format/Info                         : Advanced Video Codec
Format/Url                          : http://developers.videolan.org/x264.html
Commercial name                     : AVC
Format profile                      : High@L4.1
Format settings                     : CABAC / 9 Ref Frames
Format settings, CABAC              : Yes
Format settings, CABAC              : Yes
Format settings, ReFrames           : 9
Format settings, ReFrames           : 9 frames
Internet media type                 : video/H264
Codec ID                            : avc1
Codec ID/Info                       : Advanced Video Coding
Codec ID/Url                        : http://www.apple.com/quicktime/download/standalone.html
Codec                               : AVC
Codec                               : AVC
Codec/Family                        : AVC
Codec/Info                          : Advanced Video Codec
Codec/Url                           : http://developers.videolan.org/x264.html
Codec/CC                            : avc1
Codec profile                       : High@L4.1
Codec settings                      : CABAC / 9 Ref Frames
Codec settings, CABAC               : Yes
Codec_Settings_RefFrames            : 9
Bit rate                            : 1290000
Bit rate                            : 1 290 Kbps
Width                               : 688
Width                               : 688 pixels
Height                              : 476
Height                              : 476 pixels
Pixel aspect ratio                  : 0.908
Original pixel aspect ratio         : 0."
,instameat,2013-02-01T19:45Z,Np these things happen. Now I have with and without DC.  Bonus.  Thank you for the effort.
,Doug_xx2,2013-02-12T15:13Z,I hope everyone is enjoying this video.
